<svg width="25" height="24" viewBox="0 0 25 24" fill="none" xmlns="http://www.w3.org/2000/svg">
<path d="M13.8717 19C13.8717 19.7 14.0017 20.37 14.2217 21H5.8717C5.34127 21 4.83256 20.7893 4.45749 20.4142C4.08242 20.0391 3.8717 19.5304 3.8717 19V5C3.8717 3.9 4.7717 3 5.8717 3H19.8717C20.4021 3 20.9108 3.21071 21.2859 3.58579C21.661 3.96086 21.8717 4.46957 21.8717 5V13.35C21.2417 13.13 20.5717 13 19.8717 13V5H5.8717V19H13.8717ZM14.8317 12.29L12.0817 15.83L10.1217 13.47L7.3717 17H14.2217C14.6217 15.88 15.3417 14.91 16.2717 14.21L14.8317 12.29ZM20.8717 18V15H18.8717V18H15.8717V20H18.8717V23H20.8717V20H23.8717V18H20.8717Z"  fill="#C5FFF6"/>
</svg>
