<svg width="24" height="22" viewBox="0 0 24 22" fill="none" xmlns="http://www.w3.org/2000/svg">
<path d="M11.14 5.93027L11.9712 0.740816C12.0396 0.314286 12.3958 0 12.8132 0C13.0831 0 13.3349 0.130952 13.4969 0.355442L14.105 1.19728H15.9796C16.4366 1.19728 16.8756 1.3881 17.1994 1.72483L17.8471 2.39456H19.8621C20.3406 2.39456 20.7256 2.7949 20.7256 3.29252V4.19048C20.7256 5.84422 19.4375 7.18367 17.8471 7.18367H15.3535L15.17 8.32483L11.14 5.93027ZM14.9685 9.58197V17.9592C14.9685 18.6214 14.454 19.1565 13.8171 19.1565H12.6657C12.0288 19.1565 11.5142 18.6214 11.5142 17.9592V13.649C10.6507 14.1092 9.67197 14.3673 8.63569 14.3673C7.59941 14.3673 6.6207 14.1092 5.75713 13.649V17.9592C5.75713 18.6214 5.24259 19.1565 4.6057 19.1565H3.45428C2.8174 19.1565 2.30286 18.6214 2.30286 17.9592V9.34626C1.26657 8.93843 0.453381 8.02551 0.172721 6.85816L0.0359892 6.27823C-0.118733 5.63844 0.255479 4.98741 0.87437 4.82653C1.49326 4.66565 2.11575 5.05476 2.27047 5.6983L2.4108 6.27823C2.53674 6.80952 2.99731 7.18367 3.52624 7.18367H10.9313L14.9685 9.58197ZM16.6957 2.9932C16.6957 2.83443 16.635 2.68216 16.527 2.5699C16.4191 2.45763 16.2726 2.39456 16.1199 2.39456C15.9673 2.39456 15.8208 2.45763 15.7129 2.5699C15.6049 2.68216 15.5442 2.83443 15.5442 2.9932C15.5442 3.15197 15.6049 3.30423 15.7129 3.4165C15.8208 3.52877 15.9673 3.59184 16.1199 3.59184C16.2726 3.59184 16.4191 3.52877 16.527 3.4165C16.635 3.30423 16.6957 3.15197 16.6957 2.9932Z" fill="#33312F"/>
</svg>
