<svg class="fill-black" xmlns="http://www.w3.org/2000/svg" viewBox="0 0 26 26" fill="none" :width="widthAttr" :height="heightAttr" overflow="visible">
  <g>
    <path d="M24.3462 12.4877L13.5129 1.65435C13.3776 1.51984 13.1945 1.44434 13.0037 1.44434C12.8129 1.44434 12.6299 1.51984 12.4945 1.65435L1.66121 12.4877C1.54289 12.6258 1.48107 12.8036 1.48809 12.9853C1.49511 13.1671 1.57046 13.3395 1.69908 13.4682C1.82771 13.5968 2.00013 13.6721 2.1819 13.6791C2.36366 13.6862 2.54138 13.6243 2.67955 13.506L13.0001 3.18546L23.3207 13.5132C23.4588 13.6316 23.6365 13.6934 23.8183 13.6864C24.0001 13.6793 24.1725 13.604 24.3011 13.4754C24.4297 13.3467 24.5051 13.1743 24.5121 12.9926C24.5191 12.8108 24.4573 12.6331 24.339 12.4949L24.3462 12.4877Z" class="fill-current-color"/>
    <path d="M20.2221 23.1116H16.611V15.8894H9.38881V23.1116H5.7777V13.0005L4.33325 14.4449V23.1116C4.33325 23.4947 4.48543 23.8621 4.75632 24.133C5.02721 24.4039 5.39461 24.556 5.7777 24.556H10.8333V17.3338H15.1666V24.556H20.2221C20.6052 24.556 20.9726 24.4039 21.2435 24.133C21.5144 23.8621 21.6666 23.4947 21.6666 23.1116V14.2716L20.2221 12.8271V23.1116Z" class="fill-current-color"/>
  </g>
</svg>