<svg width="8" height="20" viewBox="0 0 8 20" fill="none" xmlns="http://www.w3.org/2000/svg">
<path d="M2 20V13H0V7C0 6.45 0.196 5.979 0.588 5.587C0.979334 5.19567 1.45 5 2 5H6C6.55 5 7.021 5.19567 7.413 5.587C7.80433 5.979 8 6.45 8 7V13H6V20H2ZM4 4C3.45 4 2.97933 3.804 2.588 3.412C2.196 3.02067 2 2.55 2 2C2 1.45 2.196 0.979 2.588 0.587C2.97933 0.195667 3.45 0 4 0C4.55 0 5.021 0.195667 5.413 0.587C5.80433 0.979 6 1.45 6 2C6 2.55 5.80433 3.02067 5.413 3.412C5.021 3.804 4.55 4 4 4Z" fill="#C5FFF6"/>
</svg>
