<svg width="59" height="59" viewBox="0 0 59 59" fill="none" xmlns="http://www.w3.org/2000/svg">
<path fill-rule="evenodd" clip-rule="evenodd" d="M2.95621 8.71817C4.74227 6.93211 7.16469 5.92871 9.69056 5.92871H26.6191C27.7237 5.92871 28.6191 6.82414 28.6191 7.92871C28.6191 9.03328 27.7237 9.92871 26.6191 9.92871H9.69056C8.22555 9.92871 6.82055 10.5107 5.78463 11.5466C4.74872 12.5825 4.16675 13.9875 4.16675 15.4525V49.3097C4.16675 50.7747 4.74872 52.1797 5.78463 53.2156C6.82055 54.2515 8.22555 54.8335 9.69056 54.8335H47.3096C48.7746 54.8335 50.1796 54.2515 51.2155 53.2156C52.2514 52.1797 52.8334 50.7747 52.8334 49.3097V32.3811C52.8334 31.2765 53.7288 30.3811 54.8334 30.3811C55.938 30.3811 56.8334 31.2765 56.8334 32.3811V49.3097C56.8334 51.8355 55.83 54.258 54.044 56.044C52.2579 57.8301 49.8355 58.8335 47.3096 58.8335H9.69056C7.16469 58.8335 4.74227 57.8301 2.95621 56.044C1.17015 54.2579 0.166748 51.8355 0.166748 49.3097V15.4525C0.166748 12.9266 1.17015 10.5042 2.95621 8.71817Z" fill="#C5FFF6"/>
<path fill-rule="evenodd" clip-rule="evenodd" d="M53.0534 5.12507C52.4246 4.63448 51.6388 4.38778 50.8413 4.43178C50.0259 4.47677 49.2561 4.82247 48.6808 5.40205C48.6806 5.40218 48.6809 5.40192 48.6808 5.40205L22.7258 31.5762L20.3767 38.6235L27.4198 36.2758L48.1862 15.5093L45.8618 13.0703C45.0998 12.2707 45.1303 11.0047 45.9299 10.2427C46.7295 9.48065 47.9954 9.51112 48.7575 10.3107L51.0155 12.6801L53.3551 10.3404C53.3552 10.3404 53.355 10.3405 53.3551 10.3404C54.004 9.69125 54.3721 8.8129 54.3797 7.89501C54.3872 6.99528 54.0479 6.12798 53.4335 5.47253L53.0534 5.12507Z" fill="#C5FFF6"/>
</svg>
