<svg width="60" height="60" viewBox="0 0 60 60" fill="none" xmlns="http://www.w3.org/2000/svg">
<g clip-path="url(#clip0_229_325)">
<path d="M14 45.972H16V43.972H14V45.972ZM14 57.964H12C12 58.3354 12.1034 58.6995 12.2987 59.0155C12.494 59.3314 12.7734 59.5868 13.1056 59.7529C13.4378 59.919 13.8097 59.9893 14.1796 59.9559C14.5495 59.9226 14.9029 59.7869 15.2 59.564L14 57.964ZM30 45.972V43.972H29.332L28.8 44.372L30 45.972ZM18 15.988H16V19.988H18V15.988ZM42 19.988H44V15.988H42V19.988ZM18 27.98H16V31.98H18V27.98ZM34 31.98H36V27.98H34V31.98ZM12 45.972V57.964H16V45.972H12ZM15.2 59.564L31.2 47.572L28.8 44.372L12.8 56.364L15.2 59.564ZM30 47.972H54V43.972H30V47.972ZM54 47.972C57.316 47.972 60 45.292 60 41.972H56C56 43.08 55.108 43.972 54 43.972V47.972ZM60 41.972V6H56V41.976H60V41.972ZM60 6C60 2.68 57.316 0 54 0V4C55.108 4 56 4.892 56 6H60ZM54 0H6V4H54V0ZM6 0C2.684 0 0 2.68 0 6H4C4 4.892 4.892 4 6 4V0ZM0 6V41.972H4V6H0ZM0 41.972C0 45.292 2.684 47.972 6 47.972V43.972C5.73721 43.9725 5.4769 43.9212 5.23401 43.8208C4.99112 43.7205 4.77043 43.5732 4.58461 43.3874C4.39879 43.2016 4.25149 42.9809 4.15117 42.738C4.05084 42.4951 3.99947 42.2348 4 41.972H0ZM6 47.972H14V43.972H6V47.972ZM18 19.988H42V15.988H18V19.988ZM18 31.98H34V27.98H18V31.98Z" fill="#C5FFF6"/>
</g>
<defs>
<clipPath id="clip0_229_325">
<rect width="60" height="60" fill="white"/>
</clipPath>
</defs>
</svg>
