<svg width="60" height="60" viewBox="0 0 60 60" fill="none" xmlns="http://www.w3.org/2000/svg">
<path d="M54.4899 50.5106L43.3594 39.3754C46.6967 35.0265 48.2548 29.571 47.7176 24.1156C47.1805 18.6602 44.5883 13.6133 40.4669 9.99882C36.3455 6.38434 31.0035 4.47288 25.5247 4.65219C20.0458 4.8315 14.8402 7.08816 10.964 10.9644C7.08779 14.8406 4.83113 20.0461 4.65182 25.525C4.47251 31.0039 6.38397 36.3459 9.99846 40.4672C13.6129 44.5886 18.6598 47.1808 24.1152 47.718C29.5707 48.2551 35.0261 46.6971 39.375 43.3598L50.5149 54.502C50.7765 54.7636 51.0871 54.9711 51.4289 55.1127C51.7707 55.2543 52.1371 55.3272 52.5071 55.3272C52.8771 55.3272 53.2434 55.2543 53.5852 55.1127C53.9271 54.9711 54.2376 54.7636 54.4993 54.502C54.7609 54.2403 54.9684 53.9298 55.11 53.5879C55.2516 53.2461 55.3245 52.8798 55.3245 52.5098C55.3245 52.1398 55.2516 51.7734 55.11 51.4316C54.9684 51.0898 54.7609 50.7792 54.4993 50.5176L54.4899 50.5106ZM10.3125 26.2504C10.3125 23.0983 11.2473 20.0169 12.9985 17.396C14.7497 14.7751 17.2388 12.7324 20.151 11.5261C23.0632 10.3198 26.2677 10.0042 29.3593 10.6191C32.4509 11.2341 35.2907 12.752 37.5196 14.9809C39.7485 17.2098 41.2664 20.0496 41.8813 23.1412C42.4963 26.2327 42.1806 29.4372 40.9744 32.3494C39.7681 35.2616 37.7254 37.7507 35.1044 39.502C32.4835 41.2532 29.4022 42.1879 26.25 42.1879C22.0245 42.1836 17.9732 40.503 14.9853 37.5151C11.9974 34.5272 10.3169 30.476 10.3125 26.2504Z" fill="#C5FFF6"/>
</svg>
